<?xml version="1.0" encoding="UTF-8"?>
<!--Generator: Apple Native CoreSVG 232.5-->
<!DOCTYPE svg
PUBLIC "-//W3C//DTD SVG 1.1//EN"
       "http://www.w3.org/Graphics/SVG/1.1/DTD/svg11.dtd">
<svg version="1.1" xmlns="http://www.w3.org/2000/svg" xmlns:xlink="http://www.w3.org/1999/xlink" width="3300" height="2200">
 <!--glyph: "", point size: 100.0, font version: "19.2d2e1", template writer version: "128"-->
 <style>.monochrome-0 {-sfsymbols-motion-group:0}

.multicolor-0:tintColor {-sfsymbols-motion-group:0}

.hierarchical-0:primary {-sfsymbols-motion-group:0}

.SFSymbolsPreviewWireframe {fill:none;opacity:1.0;stroke:black;stroke-width:0.5}
</style>
 <g id="Notes">
  <rect height="2200" id="artboard" style="fill:white;opacity:1" width="3300" x="0" y="0"/>
  <line style="fill:none;stroke:black;opacity:1;stroke-width:0.5;" x1="263" x2="3036" y1="292" y2="292"/>
  <text style="stroke:none;fill:black;font-family:sans-serif;font-size:13;font-weight:bold;" transform="matrix(1 0 0 1 263 322)">Weight/Scale Variations</text>
  <text style="stroke:none;fill:black;font-family:sans-serif;font-size:13;text-anchor:middle;" transform="matrix(1 0 0 1 559.711 322)">Ultralight</text>
  <text style="stroke:none;fill:black;font-family:sans-serif;font-size:13;text-anchor:middle;" transform="matrix(1 0 0 1 856.422 322)">Thin</text>
  <text style="stroke:none;fill:black;font-family:sans-serif;font-size:13;text-anchor:middle;" transform="matrix(1 0 0 1 1153.13 322)">Light</text>
  <text style="stroke:none;fill:black;font-family:sans-serif;font-size:13;text-anchor:middle;" transform="matrix(1 0 0 1 1449.84 322)">Regular</text>
  <text style="stroke:none;fill:black;font-family:sans-serif;font-size:13;text-anchor:middle;" transform="matrix(1 0 0 1 1746.56 322)">Medium</text>
  <text style="stroke:none;fill:black;font-family:sans-serif;font-size:13;text-anchor:middle;" transform="matrix(1 0 0 1 2043.27 322)">Semibold</text>
  <text style="stroke:none;fill:black;font-family:sans-serif;font-size:13;text-anchor:middle;" transform="matrix(1 0 0 1 2339.98 322)">Bold</text>
  <text style="stroke:none;fill:black;font-family:sans-serif;font-size:13;text-anchor:middle;" transform="matrix(1 0 0 1 2636.69 322)">Heavy</text>
  <text style="stroke:none;fill:black;font-family:sans-serif;font-size:13;text-anchor:middle;" transform="matrix(1 0 0 1 2933.4 322)">Black</text>
  <line style="fill:none;stroke:black;opacity:1;stroke-width:0.5;" x1="263" x2="3036" y1="1903" y2="1903"/>
  <g transform="matrix(0.2 0 0 0.2 263 1933)">
   <path d="m46.2402 4.15039c21.5332 0 39.4531-17.8711 39.4531-39.4043s-17.9688-39.4043-39.502-39.4043c-21.4844 0-39.3555 17.8711-39.3555 39.4043s17.9199 39.4043 39.4043 39.4043Zm0-7.42188c-17.7246 0-31.8848-14.209-31.8848-31.9824s14.1113-31.9824 31.8359-31.9824c17.7734 0 32.0312 14.209 32.0312 31.9824s-14.209 31.9824-31.9824 31.9824Zm-17.9688-31.9824c0 2.14844 1.51367 3.61328 3.75977 3.61328h10.498v10.5957c0 2.19727 1.46484 3.71094 3.61328 3.71094 2.24609 0 3.71094-1.51367 3.71094-3.71094v-10.5957h10.5957c2.19727 0 3.71094-1.46484 3.71094-3.61328 0-2.19727-1.51367-3.71094-3.71094-3.71094h-10.5957v-10.5469c0-2.24609-1.46484-3.75977-3.71094-3.75977-2.14844 0-3.61328 1.51367-3.61328 3.75977v10.5469h-10.498c-2.24609 0-3.75977 1.51367-3.75977 3.71094Z"/>
  </g>
  <g transform="matrix(0.2 0 0 0.2 281.506 1933)">
   <path d="m58.5449 14.5508c27.2461 0 49.8047-22.6074 49.8047-49.8047 0-27.2461-22.6074-49.8047-49.8535-49.8047-27.1973 0-49.7559 22.5586-49.7559 49.8047 0 27.1973 22.6074 49.8047 49.8047 49.8047Zm0-8.30078c-23.0469 0-41.4551-18.457-41.4551-41.5039s18.3594-41.5039 41.4062-41.5039 41.5527 18.457 41.5527 41.5039-18.457 41.5039-41.5039 41.5039Zm-22.6562-41.5039c0 2.39258 1.66016 4.00391 4.15039 4.00391h14.3555v14.4043c0 2.44141 1.66016 4.15039 4.05273 4.15039 2.44141 0 4.15039-1.66016 4.15039-4.15039v-14.4043h14.4043c2.44141 0 4.15039-1.61133 4.15039-4.00391 0-2.44141-1.70898-4.15039-4.15039-4.15039h-14.4043v-14.3555c0-2.49023-1.70898-4.19922-4.15039-4.19922-2.39258 0-4.05273 1.70898-4.05273 4.19922v14.3555h-14.3555c-2.49023 0-4.15039 1.70898-4.15039 4.15039Z"/>
  </g>
  <g transform="matrix(0.2 0 0 0.2 304.924 1933)">
   <path d="m74.8535 28.3203c34.8145 0 63.623-28.8086 63.623-63.5742 0-34.8145-28.8574-63.623-63.6719-63.623-34.7656 0-63.5254 28.8086-63.5254 63.623 0 34.7656 28.8086 63.5742 63.5742 63.5742Zm0-9.08203c-30.1758 0-54.4434-24.3164-54.4434-54.4922 0-30.2246 24.2188-54.4922 54.3945-54.4922 30.2246 0 54.541 24.2676 54.541 54.4922 0 30.1758-24.2676 54.4922-54.4922 54.4922Zm-28.8574-54.4922c0 2.58789 1.85547 4.39453 4.58984 4.39453h19.7266v19.7754c0 2.68555 1.85547 4.58984 4.44336 4.58984 2.68555 0 4.54102-1.85547 4.54102-4.58984v-19.7754h19.7754c2.68555 0 4.58984-1.80664 4.58984-4.39453 0-2.73438-1.85547-4.58984-4.58984-4.58984h-19.7754v-19.7266c0-2.73438-1.85547-4.63867-4.54102-4.63867-2.58789 0-4.44336 1.9043-4.44336 4.63867v19.7266h-19.7266c-2.73438 0-4.58984 1.85547-4.58984 4.58984Z"/>
  </g>
  <text style="stroke:none;fill:black;font-family:sans-serif;font-size:13;font-weight:bold;" transform="matrix(1 0 0 1 263 1953)">Design Variations</text>
  <text style="stroke:none;fill:black;font-family:sans-serif;font-size:13;" transform="matrix(1 0 0 1 263 1971)">Symbols are supported in up to nine weights and three scales.</text>
  <text style="stroke:none;fill:black;font-family:sans-serif;font-size:13;" transform="matrix(1 0 0 1 263 1989)">For optimal layout with text and other symbols, vertically align</text>
  <text style="stroke:none;fill:black;font-family:sans-serif;font-size:13;" transform="matrix(1 0 0 1 263 2007)">symbols with the adjacent text.</text>
  <line style="fill:none;stroke:#00AEEF;stroke-width:0.5;opacity:1.0;" x1="776" x2="776" y1="1919" y2="1933"/>
  <g transform="matrix(0.2 0 0 0.2 776 1933)">
   <path d="m16.5527 0.78125c2.58789 0 3.85742-0.976562 4.78516-3.71094l6.29883-17.2363h28.8086l6.29883 17.2363c0.927734 2.73438 2.19727 3.71094 4.73633 3.71094 2.58789 0 4.24805-1.5625 4.24805-4.00391 0-0.830078-0.146484-1.61133-0.537109-2.63672l-22.9004-60.9863c-1.12305-2.97852-3.125-4.49219-6.25-4.49219-3.02734 0-5.07812 1.46484-6.15234 4.44336l-22.9004 61.084c-0.390625 1.02539-0.537109 1.80664-0.537109 2.63672 0 2.44141 1.5625 3.95508 4.10156 3.95508Zm13.4766-28.3691 11.8652-32.8613h0.244141l11.8652 32.8613Z"/>
  </g>
  <line style="fill:none;stroke:#00AEEF;stroke-width:0.5;opacity:1.0;" x1="792.836" x2="792.836" y1="1919" y2="1933"/>
  <text style="stroke:none;fill:black;font-family:sans-serif;font-size:13;font-weight:bold;" transform="matrix(1 0 0 1 776 1953)">Margins</text>
  <text style="stroke:none;fill:black;font-family:sans-serif;font-size:13;" transform="matrix(1 0 0 1 776 1971)">Leading and trailing margins on the left and right side of each symbol</text>
  <text style="stroke:none;fill:black;font-family:sans-serif;font-size:13;" transform="matrix(1 0 0 1 776 1989)">can be adjusted by modifying the x-location of the margin guidelines.</text>
  <text style="stroke:none;fill:black;font-family:sans-serif;font-size:13;" transform="matrix(1 0 0 1 776 2007)">Modifications are automatically applied proportionally to all</text>
  <text style="stroke:none;fill:black;font-family:sans-serif;font-size:13;" transform="matrix(1 0 0 1 776 2025)">scales and weights.</text>
  <g transform="matrix(0.2 0 0 0.2 1289 1933)">
   <path d="m14.209 9.32617 8.49609 8.54492c4.29688 4.3457 9.22852 4.05273 13.8672-1.07422l53.4668-58.9355-4.83398-4.88281-53.0762 58.3984c-1.75781 2.00195-3.41797 2.49023-5.76172 0.146484l-5.85938-5.81055c-2.34375-2.29492-1.80664-4.00391 0.195312-5.81055l57.373-54.0039-4.88281-4.83398-57.959 54.4434c-4.93164 4.58984-5.32227 9.47266-1.02539 13.8184Zm32.0801-90.9668c-2.09961 2.05078-2.24609 4.93164-1.07422 6.88477 1.17188 1.80664 3.4668 2.97852 6.68945 2.14844 7.32422-1.70898 14.9414-2.00195 22.0703 2.68555l-2.92969 7.27539c-1.70898 4.15039-0.830078 7.08008 1.85547 9.81445l11.4746 11.5723c2.44141 2.44141 4.49219 2.53906 7.32422 2.05078l5.32227-0.976562 3.32031 3.36914-0.195312 2.7832c-0.195312 2.49023 0.439453 4.39453 2.88086 6.78711l3.80859 3.71094c2.39258 2.39258 5.46875 2.53906 7.8125 0.195312l14.5508-14.5996c2.34375-2.34375 2.24609-5.32227-0.146484-7.71484l-3.85742-3.80859c-2.39258-2.39258-4.24805-3.17383-6.64062-2.97852l-2.88086 0.244141-3.22266-3.17383 1.2207-5.61523c0.634766-2.83203-0.146484-5.0293-3.07617-7.95898l-10.9863-10.9375c-16.6992-16.6016-38.8672-16.2109-53.3203-1.75781Zm7.4707 1.85547c12.1582-8.88672 28.6133-7.37305 39.7461 3.75977l12.1582 12.0605c1.17188 1.17188 1.36719 2.09961 1.02539 3.80859l-1.61133 7.42188 7.51953 7.42188 4.93164-0.292969c1.26953-0.0488281 1.66016 0.0488281 2.63672 1.02539l2.88086 2.88086-12.207 12.207-2.88086-2.88086c-0.976562-0.976562-1.12305-1.36719-1.07422-2.68555l0.341797-4.88281-7.4707-7.42188-7.61719 1.26953c-1.61133 0.341797-2.34375 0.195312-3.56445-0.976562l-10.0098-10.0098c-1.26953-1.17188-1.41602-2.00195-0.634766-3.85742l4.39453-10.4492c-7.8125-7.27539-17.9688-10.4004-28.125-7.42188-0.78125 0.195312-1.07422-0.439453-0.439453-0.976562Z"/>
  </g>
  <text style="stroke:none;fill:black;font-family:sans-serif;font-size:13;font-weight:bold;" transform="matrix(1 0 0 1 1289 1953)">Exporting</text>
  <text style="stroke:none;fill:black;font-family:sans-serif;font-size:13;" transform="matrix(1 0 0 1 1289 1971)">Symbols should be outlined when exporting to ensure the</text>
  <text style="stroke:none;fill:black;font-family:sans-serif;font-size:13;" transform="matrix(1 0 0 1 1289 1989)">design is preserved when submitting to Xcode.</text>
  <text id="template-version" style="stroke:none;fill:black;font-family:sans-serif;font-size:13;text-anchor:end;" transform="matrix(1 0 0 1 3036 1933)">Template v.5.0</text>
  <text style="stroke:none;fill:black;font-family:sans-serif;font-size:13;text-anchor:end;" transform="matrix(1 0 0 1 3036 1951)">Requires Xcode 15 or greater</text>
  <text id="descriptive-name" style="stroke:none;fill:black;font-family:sans-serif;font-size:13;text-anchor:end;" transform="matrix(1 0 0 1 3036 1969)">Generated from knit</text>
  <text style="stroke:none;fill:black;font-family:sans-serif;font-size:13;text-anchor:end;" transform="matrix(1 0 0 1 3036 1987)">Typeset at 100.0 points</text>
  <text style="stroke:none;fill:black;font-family:sans-serif;font-size:13;" transform="matrix(1 0 0 1 263 726)">Small</text>
  <text style="stroke:none;fill:black;font-family:sans-serif;font-size:13;" transform="matrix(1 0 0 1 263 1156)">Medium</text>
  <text style="stroke:none;fill:black;font-family:sans-serif;font-size:13;" transform="matrix(1 0 0 1 263 1586)">Large</text>
 </g>
 <g id="Guides">
  <g id="H-reference" style="fill:#27AAE1;stroke:none;" transform="matrix(1 0 0 1 339 696)">
   <path d="M0.993654 0L3.63775 0L29.3281-67.1323L30.0303-67.1323L30.0303-70.459L28.1226-70.459ZM11.6885-24.4799L46.9815-24.4799L46.2315-26.7285L12.4385-26.7285ZM55.1196 0L57.7637 0L30.6382-70.459L29.4326-70.459L29.4326-67.1323Z"/>
  </g>
  <line id="Baseline-S" style="fill:none;stroke:#27AAE1;opacity:1;stroke-width:0.5;" x1="263" x2="3036" y1="696" y2="696"/>
  <line id="Capline-S" style="fill:none;stroke:#27AAE1;opacity:1;stroke-width:0.5;" x1="263" x2="3036" y1="625.541" y2="625.541"/>
  <g id="H-reference" style="fill:#27AAE1;stroke:none;" transform="matrix(1 0 0 1 339 1126)">
   <path d="M0.993654 0L3.63775 0L29.3281-67.1323L30.0303-67.1323L30.0303-70.459L28.1226-70.459ZM11.6885-24.4799L46.9815-24.4799L46.2315-26.7285L12.4385-26.7285ZM55.1196 0L57.7637 0L30.6382-70.459L29.4326-70.459L29.4326-67.1323Z"/>
  </g>
  <line id="Baseline-M" style="fill:none;stroke:#27AAE1;opacity:1;stroke-width:0.5;" x1="263" x2="3036" y1="1126" y2="1126"/>
  <line id="Capline-M" style="fill:none;stroke:#27AAE1;opacity:1;stroke-width:0.5;" x1="263" x2="3036" y1="1055.54" y2="1055.54"/>
  <g id="H-reference" style="fill:#27AAE1;stroke:none;" transform="matrix(1 0 0 1 339 1556)">
   <path d="M0.993654 0L3.63775 0L29.3281-67.1323L30.0303-67.1323L30.0303-70.459L28.1226-70.459ZM11.6885-24.4799L46.9815-24.4799L46.2315-26.7285L12.4385-26.7285ZM55.1196 0L57.7637 0L30.6382-70.459L29.4326-70.459L29.4326-67.1323Z"/>
  </g>
  <line id="Baseline-L" style="fill:none;stroke:#27AAE1;opacity:1;stroke-width:0.5;" x1="263" x2="3036" y1="1556" y2="1556"/>
  <line id="Capline-L" style="fill:none;stroke:#27AAE1;opacity:1;stroke-width:0.5;" x1="263" x2="3036" y1="1485.54" y2="1485.54"/>
  <line id="left-margin-Ultralight-S" style="fill:none;stroke:#00AEEF;stroke-width:0.5;opacity:1.0;" x1="512.566" x2="512.566" y1="600.785" y2="720.121"/>
  <line id="right-margin-Ultralight-S" style="fill:none;stroke:#00AEEF;stroke-width:0.5;opacity:1.0;" x1="606.857" x2="606.857" y1="600.785" y2="720.121"/>
  <line id="left-margin-Regular-S" style="fill:none;stroke:#00AEEF;stroke-width:0.5;opacity:1.0;" x1="1399.43" x2="1399.43" y1="600.785" y2="720.121"/>
  <line id="right-margin-Regular-S" style="fill:none;stroke:#00AEEF;stroke-width:0.5;opacity:1.0;" x1="1500.26" x2="1500.26" y1="600.785" y2="720.121"/>
  <line id="left-margin-Black-S" style="fill:none;stroke:#00AEEF;stroke-width:0.5;opacity:1.0;" x1="2879.23" x2="2879.23" y1="600.785" y2="720.121"/>
  <line id="right-margin-Black-S" style="fill:none;stroke:#00AEEF;stroke-width:0.5;opacity:1.0;" x1="2987.57" x2="2987.57" y1="600.785" y2="720.121"/>
 </g>
 <g id="Symbols">
  <g id="Black-S" transform="matrix(1 0 0 1 2879.23 696)">
   <path class="monochrome-0 multicolor-0:tintColor hierarchical-0:primary SFSymbolsPreviewWireframe" d="M80.3459-9.69881C78.2581-15.1209 75.1171-19.9534 71.0099-24.0619L59.0656-36.0098L75.9108-52.8605L76.878-51.8929L80.139-55.1548C81.1799-56.1959 81.7531-57.5803 81.7531-59.0527C81.7531-60.5251 81.1798-61.9094 80.139-62.9504L78.7019-64.3879C76.5536-66.5371 73.0573-66.5373 70.9087-64.3879L67.6478-61.1261L68.615-60.1585L51.7699-43.308L34.9246-60.1588L35.8918-61.1264L32.6311-64.3881C30.4827-66.5372 26.9864-66.5374 24.8379-64.3881L23.4008-62.9507C22.36-61.9096 21.7868-60.5253 21.7868-59.0528C21.7868-57.5803 22.3601-56.1961 23.4009-55.1549L26.6619-51.893L27.6291-52.8606L44.4743-36.0099L32.53-24.0618C28.4228-19.9533 25.2818-15.1209 23.194-9.6987L21.77-6L25.4674-7.42466C30.8876-9.51303 35.7185-12.6552 39.8257-16.7637L51.77-28.7118L63.7142-16.7636C67.8215-12.655 72.6524-9.51292 78.0726-7.42454L81.77-6L80.3459-9.69881ZM27.6288-57.8366L26.6617-56.869L25.888-57.6429C25.5115-58.0195 25.3042-58.5202 25.3042-59.0528C25.3042-59.5854 25.5116-60.0861 25.888-60.4627L27.325-61.9002C27.7015-62.2768 28.2021-62.4842 28.7345-62.4842C29.2669-62.4842 29.7675-62.2767 30.1439-61.9002L30.9176-61.1261L29.9504-60.1585L49.2828-40.82L46.9615-38.4979L27.6288-57.8366ZM37.3385-19.2517C34.6714-16.5837 31.6707-14.3612 28.3804-12.6129C30.1283-15.9042 32.35-18.9059 35.0172-21.5739L73.5896-60.1585L72.6224-61.1261L73.3961-61.9002C73.7726-62.2768 74.2731-62.4842 74.8055-62.4842C75.3379-62.4842 75.8386-62.2767 76.215-61.9002L77.652-60.4625C78.0285-60.0861 78.2358-59.5854 78.2358-59.0528C78.2358-58.5202 78.0284-58.0194 77.652-57.6429L76.8783-56.869L75.9112-57.8366L37.3385-19.2517ZM66.2012-19.2517L54.2572-31.1997L56.5784-33.5218L68.5227-21.5738C71.1899-18.9058 73.4116-15.9041 75.1595-12.6128C71.8692-14.3611 68.8685-16.5837 66.2012-19.2517Z"/>
  </g>
  <g id="Regular-S" transform="matrix(1 0 0 1 1399.43 696)">
   <path class="monochrome-0 multicolor-0:tintColor hierarchical-0:primary SFSymbolsPreviewWireframe" d="M77.1459-9.69881C75.0581-15.1209 71.9171-19.9534 67.8099-24.0619L55.8656-36.0098L72.7108-52.8605L73.678-51.8929L76.939-55.1548C77.9799-56.1959 78.5531-57.5803 78.5531-59.0527C78.5531-60.5251 77.9798-61.9094 76.939-62.9504L75.5019-64.3879C73.3536-66.5371 69.8573-66.5373 67.7087-64.3879L64.4478-61.1261L65.415-60.1585L48.5699-43.308L31.7246-60.1588L32.6918-61.1264L29.4311-64.3881C27.2827-66.5372 23.7864-66.5374 21.6379-64.3881L20.2008-62.9507C19.16-61.9096 18.5868-60.5253 18.5868-59.0528C18.5868-57.5803 19.1601-56.1961 20.2009-55.1549L23.4619-51.893L24.4291-52.8606L41.2743-36.0099L29.33-24.0618C25.2228-19.9533 22.0818-15.1209 19.994-9.6987L18.57-6L22.2674-7.42466C27.6876-9.51303 32.5185-12.6552 36.6257-16.7637L48.57-28.7118L60.5142-16.7636C64.6215-12.655 69.4524-9.51292 74.8726-7.42454L78.57-6L77.1459-9.69881ZM24.4288-57.8366L23.4617-56.869L22.688-57.6429C22.3115-58.0195 22.1042-58.5202 22.1042-59.0528C22.1042-59.5854 22.3116-60.0861 22.688-60.4627L24.125-61.9002C24.5015-62.2768 25.0021-62.4842 25.5345-62.4842C26.0669-62.4842 26.5675-62.2767 26.9439-61.9002L27.7176-61.1261L26.7504-60.1585L46.0828-40.82L43.7615-38.4979L24.4288-57.8366ZM34.1385-19.2517C31.4714-16.5837 28.4707-14.3612 25.1804-12.6129C26.9283-15.9042 29.15-18.9059 31.8172-21.5739L70.3896-60.1585L69.4224-61.1261L70.1961-61.9002C70.5726-62.2768 71.0731-62.4842 71.6055-62.4842C72.1379-62.4842 72.6386-62.2767 73.015-61.9002L74.452-60.4625C74.8285-60.0861 75.0358-59.5854 75.0358-59.0528C75.0358-58.5202 74.8284-58.0194 74.452-57.6429L73.6783-56.869L72.7112-57.8366L34.1385-19.2517ZM63.0012-19.2517L51.0572-31.1997L53.3784-33.5218L65.3227-21.5738C67.9899-18.9058 70.2116-15.9041 71.9595-12.6128C68.6692-14.3611 65.6685-16.5837 63.0012-19.2517Z"/>
  </g>
  <g id="Ultralight-S" transform="matrix(1 0 0 1 512.566 696)">
   <path class="monochrome-0 multicolor-0:tintColor hierarchical-0:primary SFSymbolsPreviewWireframe" d="M76.0099-10.6988C73.9221-16.1209 70.7811-20.9534 66.6739-25.0619L54.7296-37.0098L71.5748-53.8605L72.542-52.8929L75.803-56.1548C76.8439-57.1959 77.4171-58.5803 77.4171-60.0527C77.4171-61.5251 76.8438-62.9094 75.803-63.9504L74.3659-65.3879C72.2176-67.5371 68.7213-67.5373 66.5727-65.3879L63.3118-62.1261L64.279-61.1585L47.4339-44.308L30.5886-61.1588L31.5558-62.1264L28.2951-65.3881C26.1467-67.5372 22.6504-67.5374 20.5019-65.3881L19.0648-63.9507C18.024-62.9096 17.4508-61.5253 17.4508-60.0528C17.4508-58.5803 18.0241-57.1961 19.0649-56.1549L22.3259-52.893L23.2931-53.8606L40.1383-37.0099L28.194-25.0618C24.0868-20.9533 20.9458-16.1209 18.858-10.6987L17.434-7L21.1314-8.42466C26.5516-10.513 31.3825-13.6552 35.4897-17.7637L47.434-29.7118L59.3782-17.7636C63.4855-13.655 68.3164-10.5129 73.7366-8.42454L77.434-7L76.0099-10.6988ZM23.2928-58.8366L22.3257-57.869L21.552-58.6429C21.1755-59.0195 20.9682-59.5202 20.9682-60.0528C20.9682-60.5854 21.1756-61.0861 21.552-61.4627L22.989-62.9002C23.3655-63.2768 23.8661-63.4842 24.3985-63.4842C24.9309-63.4842 25.4315-63.2767 25.8079-62.9002L26.5816-62.1261L25.6144-61.1585L44.9468-41.82L42.6255-39.4979L23.2928-58.8366ZM33.0025-20.2517C30.3354-17.5837 27.3347-15.3612 24.0444-13.6129C25.7923-16.9042 28.014-19.9059 30.6812-22.5739L69.2536-61.1585L68.2864-62.1261L69.0601-62.9002C69.4366-63.2768 69.9371-63.4842 70.4695-63.4842C71.0019-63.4842 71.5026-63.2767 71.879-62.9002L73.316-61.4625C73.6925-61.0861 73.8998-60.5854 73.8998-60.0528C73.8998-59.5202 73.6924-59.0194 73.316-58.6429L72.5423-57.869L71.5752-58.8366L33.0025-20.2517ZM61.8652-20.2517L49.9212-32.1997L52.2424-34.5218L64.1867-22.5738C66.8539-19.9058 69.0756-16.9041 70.8235-13.6128C67.5332-15.3611 64.5325-17.5837 61.8652-20.2517Z"/>
  </g>
 </g>
</svg>
