<?xml version="1.0" encoding="UTF-8"?>
<!--Generator: Apple Native CoreSVG 232.5-->
<!DOCTYPE svg
PUBLIC "-//W3C//DTD SVG 1.1//EN"
       "http://www.w3.org/Graphics/SVG/1.1/DTD/svg11.dtd">
<svg version="1.1" xmlns="http://www.w3.org/2000/svg" xmlns:xlink="http://www.w3.org/1999/xlink" width="3300" height="2200">
 <!--glyph: "", point size: 100.0, font version: "19.2d2e1", template writer version: "128"-->
 <style>.monochrome-0 {-sfsymbols-motion-group:0}

.multicolor-0:tintColor {-sfsymbols-motion-group:0}

.hierarchical-0:primary {-sfsymbols-motion-group:0}

.SFSymbolsPreviewWireframe {fill:none;opacity:1.0;stroke:black;stroke-width:0.5}
</style>
 <g id="Notes">
  <rect height="2200" id="artboard" style="fill:white;opacity:1" width="3300" x="0" y="0"/>
  <line style="fill:none;stroke:black;opacity:1;stroke-width:0.5;" x1="263" x2="3036" y1="292" y2="292"/>
  <text style="stroke:none;fill:black;font-family:sans-serif;font-size:13;font-weight:bold;" transform="matrix(1 0 0 1 263 322)">Weight/Scale Variations</text>
  <text style="stroke:none;fill:black;font-family:sans-serif;font-size:13;text-anchor:middle;" transform="matrix(1 0 0 1 559.711 322)">Ultralight</text>
  <text style="stroke:none;fill:black;font-family:sans-serif;font-size:13;text-anchor:middle;" transform="matrix(1 0 0 1 856.422 322)">Thin</text>
  <text style="stroke:none;fill:black;font-family:sans-serif;font-size:13;text-anchor:middle;" transform="matrix(1 0 0 1 1153.13 322)">Light</text>
  <text style="stroke:none;fill:black;font-family:sans-serif;font-size:13;text-anchor:middle;" transform="matrix(1 0 0 1 1449.84 322)">Regular</text>
  <text style="stroke:none;fill:black;font-family:sans-serif;font-size:13;text-anchor:middle;" transform="matrix(1 0 0 1 1746.56 322)">Medium</text>
  <text style="stroke:none;fill:black;font-family:sans-serif;font-size:13;text-anchor:middle;" transform="matrix(1 0 0 1 2043.27 322)">Semibold</text>
  <text style="stroke:none;fill:black;font-family:sans-serif;font-size:13;text-anchor:middle;" transform="matrix(1 0 0 1 2339.98 322)">Bold</text>
  <text style="stroke:none;fill:black;font-family:sans-serif;font-size:13;text-anchor:middle;" transform="matrix(1 0 0 1 2636.69 322)">Heavy</text>
  <text style="stroke:none;fill:black;font-family:sans-serif;font-size:13;text-anchor:middle;" transform="matrix(1 0 0 1 2933.4 322)">Black</text>
  <line style="fill:none;stroke:black;opacity:1;stroke-width:0.5;" x1="263" x2="3036" y1="1903" y2="1903"/>
  <g transform="matrix(0.2 0 0 0.2 263 1933)">
   <path d="m46.2402 4.15039c21.5332 0 39.4531-17.8711 39.4531-39.4043s-17.9688-39.4043-39.502-39.4043c-21.4844 0-39.3555 17.8711-39.3555 39.4043s17.9199 39.4043 39.4043 39.4043Zm0-7.42188c-17.7246 0-31.8848-14.209-31.8848-31.9824s14.1113-31.9824 31.8359-31.9824c17.7734 0 32.0312 14.209 32.0312 31.9824s-14.209 31.9824-31.9824 31.9824Zm-17.9688-31.9824c0 2.14844 1.51367 3.61328 3.75977 3.61328h10.498v10.5957c0 2.19727 1.46484 3.71094 3.61328 3.71094 2.24609 0 3.71094-1.51367 3.71094-3.71094v-10.5957h10.5957c2.19727 0 3.71094-1.46484 3.71094-3.61328 0-2.19727-1.51367-3.71094-3.71094-3.71094h-10.5957v-10.5469c0-2.24609-1.46484-3.75977-3.71094-3.75977-2.14844 0-3.61328 1.51367-3.61328 3.75977v10.5469h-10.498c-2.24609 0-3.75977 1.51367-3.75977 3.71094Z"/>
  </g>
  <g transform="matrix(0.2 0 0 0.2 281.506 1933)">
   <path d="m58.5449 14.5508c27.2461 0 49.8047-22.6074 49.8047-49.8047 0-27.2461-22.6074-49.8047-49.8535-49.8047-27.1973 0-49.7559 22.5586-49.7559 49.8047 0 27.1973 22.6074 49.8047 49.8047 49.8047Zm0-8.30078c-23.0469 0-41.4551-18.457-41.4551-41.5039s18.3594-41.5039 41.4062-41.5039 41.5527 18.457 41.5527 41.5039-18.457 41.5039-41.5039 41.5039Zm-22.6562-41.5039c0 2.39258 1.66016 4.00391 4.15039 4.00391h14.3555v14.4043c0 2.44141 1.66016 4.15039 4.05273 4.15039 2.44141 0 4.15039-1.66016 4.15039-4.15039v-14.4043h14.4043c2.44141 0 4.15039-1.61133 4.15039-4.00391 0-2.44141-1.70898-4.15039-4.15039-4.15039h-14.4043v-14.3555c0-2.49023-1.70898-4.19922-4.15039-4.19922-2.39258 0-4.05273 1.70898-4.05273 4.19922v14.3555h-14.3555c-2.49023 0-4.15039 1.70898-4.15039 4.15039Z"/>
  </g>
  <g transform="matrix(0.2 0 0 0.2 304.924 1933)">
   <path d="m74.8535 28.3203c34.8145 0 63.623-28.8086 63.623-63.5742 0-34.8145-28.8574-63.623-63.6719-63.623-34.7656 0-63.5254 28.8086-63.5254 63.623 0 34.7656 28.8086 63.5742 63.5742 63.5742Zm0-9.08203c-30.1758 0-54.4434-24.3164-54.4434-54.4922 0-30.2246 24.2188-54.4922 54.3945-54.4922 30.2246 0 54.541 24.2676 54.541 54.4922 0 30.1758-24.2676 54.4922-54.4922 54.4922Zm-28.8574-54.4922c0 2.58789 1.85547 4.39453 4.58984 4.39453h19.7266v19.7754c0 2.68555 1.85547 4.58984 4.44336 4.58984 2.68555 0 4.54102-1.85547 4.54102-4.58984v-19.7754h19.7754c2.68555 0 4.58984-1.80664 4.58984-4.39453 0-2.73438-1.85547-4.58984-4.58984-4.58984h-19.7754v-19.7266c0-2.73438-1.85547-4.63867-4.54102-4.63867-2.58789 0-4.44336 1.9043-4.44336 4.63867v19.7266h-19.7266c-2.73438 0-4.58984 1.85547-4.58984 4.58984Z"/>
  </g>
  <text style="stroke:none;fill:black;font-family:sans-serif;font-size:13;font-weight:bold;" transform="matrix(1 0 0 1 263 1953)">Design Variations</text>
  <text style="stroke:none;fill:black;font-family:sans-serif;font-size:13;" transform="matrix(1 0 0 1 263 1971)">Symbols are supported in up to nine weights and three scales.</text>
  <text style="stroke:none;fill:black;font-family:sans-serif;font-size:13;" transform="matrix(1 0 0 1 263 1989)">For optimal layout with text and other symbols, vertically align</text>
  <text style="stroke:none;fill:black;font-family:sans-serif;font-size:13;" transform="matrix(1 0 0 1 263 2007)">symbols with the adjacent text.</text>
  <line style="fill:none;stroke:#00AEEF;stroke-width:0.5;opacity:1.0;" x1="776" x2="776" y1="1919" y2="1933"/>
  <g transform="matrix(0.2 0 0 0.2 776 1933)">
   <path d="m16.5527 0.78125c2.58789 0 3.85742-0.976562 4.78516-3.71094l6.29883-17.2363h28.8086l6.29883 17.2363c0.927734 2.73438 2.19727 3.71094 4.73633 3.71094 2.58789 0 4.24805-1.5625 4.24805-4.00391 0-0.830078-0.146484-1.61133-0.537109-2.63672l-22.9004-60.9863c-1.12305-2.97852-3.125-4.49219-6.25-4.49219-3.02734 0-5.07812 1.46484-6.15234 4.44336l-22.9004 61.084c-0.390625 1.02539-0.537109 1.80664-0.537109 2.63672 0 2.44141 1.5625 3.95508 4.10156 3.95508Zm13.4766-28.3691 11.8652-32.8613h0.244141l11.8652 32.8613Z"/>
  </g>
  <line style="fill:none;stroke:#00AEEF;stroke-width:0.5;opacity:1.0;" x1="792.836" x2="792.836" y1="1919" y2="1933"/>
  <text style="stroke:none;fill:black;font-family:sans-serif;font-size:13;font-weight:bold;" transform="matrix(1 0 0 1 776 1953)">Margins</text>
  <text style="stroke:none;fill:black;font-family:sans-serif;font-size:13;" transform="matrix(1 0 0 1 776 1971)">Leading and trailing margins on the left and right side of each symbol</text>
  <text style="stroke:none;fill:black;font-family:sans-serif;font-size:13;" transform="matrix(1 0 0 1 776 1989)">can be adjusted by modifying the x-location of the margin guidelines.</text>
  <text style="stroke:none;fill:black;font-family:sans-serif;font-size:13;" transform="matrix(1 0 0 1 776 2007)">Modifications are automatically applied proportionally to all</text>
  <text style="stroke:none;fill:black;font-family:sans-serif;font-size:13;" transform="matrix(1 0 0 1 776 2025)">scales and weights.</text>
  <g transform="matrix(0.2 0 0 0.2 1289 1933)">
   <path d="m14.209 9.32617 8.49609 8.54492c4.29688 4.3457 9.22852 4.05273 13.8672-1.07422l53.4668-58.9355-4.83398-4.88281-53.0762 58.3984c-1.75781 2.00195-3.41797 2.49023-5.76172 0.146484l-5.85938-5.81055c-2.34375-2.29492-1.80664-4.00391 0.195312-5.81055l57.373-54.0039-4.88281-4.83398-57.959 54.4434c-4.93164 4.58984-5.32227 9.47266-1.02539 13.8184Zm32.0801-90.9668c-2.09961 2.05078-2.24609 4.93164-1.07422 6.88477 1.17188 1.80664 3.4668 2.97852 6.68945 2.14844 7.32422-1.70898 14.9414-2.00195 22.0703 2.68555l-2.92969 7.27539c-1.70898 4.15039-0.830078 7.08008 1.85547 9.81445l11.4746 11.5723c2.44141 2.44141 4.49219 2.53906 7.32422 2.05078l5.32227-0.976562 3.32031 3.36914-0.195312 2.7832c-0.195312 2.49023 0.439453 4.39453 2.88086 6.78711l3.80859 3.71094c2.39258 2.39258 5.46875 2.53906 7.8125 0.195312l14.5508-14.5996c2.34375-2.34375 2.24609-5.32227-0.146484-7.71484l-3.85742-3.80859c-2.39258-2.39258-4.24805-3.17383-6.64062-2.97852l-2.88086 0.244141-3.22266-3.17383 1.2207-5.61523c0.634766-2.83203-0.146484-5.0293-3.07617-7.95898l-10.9863-10.9375c-16.6992-16.6016-38.8672-16.2109-53.3203-1.75781Zm7.4707 1.85547c12.1582-8.88672 28.6133-7.37305 39.7461 3.75977l12.1582 12.0605c1.17188 1.17188 1.36719 2.09961 1.02539 3.80859l-1.61133 7.42188 7.51953 7.42188 4.93164-0.292969c1.26953-0.0488281 1.66016 0.0488281 2.63672 1.02539l2.88086 2.88086-12.207 12.207-2.88086-2.88086c-0.976562-0.976562-1.12305-1.36719-1.07422-2.68555l0.341797-4.88281-7.4707-7.42188-7.61719 1.26953c-1.61133 0.341797-2.34375 0.195312-3.56445-0.976562l-10.0098-10.0098c-1.26953-1.17188-1.41602-2.00195-0.634766-3.85742l4.39453-10.4492c-7.8125-7.27539-17.9688-10.4004-28.125-7.42188-0.78125 0.195312-1.07422-0.439453-0.439453-0.976562Z"/>
  </g>
  <text style="stroke:none;fill:black;font-family:sans-serif;font-size:13;font-weight:bold;" transform="matrix(1 0 0 1 1289 1953)">Exporting</text>
  <text style="stroke:none;fill:black;font-family:sans-serif;font-size:13;" transform="matrix(1 0 0 1 1289 1971)">Symbols should be outlined when exporting to ensure the</text>
  <text style="stroke:none;fill:black;font-family:sans-serif;font-size:13;" transform="matrix(1 0 0 1 1289 1989)">design is preserved when submitting to Xcode.</text>
  <text id="template-version" style="stroke:none;fill:black;font-family:sans-serif;font-size:13;text-anchor:end;" transform="matrix(1 0 0 1 3036 1933)">Template v.5.0</text>
  <text style="stroke:none;fill:black;font-family:sans-serif;font-size:13;text-anchor:end;" transform="matrix(1 0 0 1 3036 1951)">Requires Xcode 15 or greater</text>
  <text id="descriptive-name" style="stroke:none;fill:black;font-family:sans-serif;font-size:13;text-anchor:end;" transform="matrix(1 0 0 1 3036 1969)">Generated from cardigan</text>
  <text style="stroke:none;fill:black;font-family:sans-serif;font-size:13;text-anchor:end;" transform="matrix(1 0 0 1 3036 1987)">Typeset at 100.0 points</text>
  <text style="stroke:none;fill:black;font-family:sans-serif;font-size:13;" transform="matrix(1 0 0 1 263 726)">Small</text>
  <text style="stroke:none;fill:black;font-family:sans-serif;font-size:13;" transform="matrix(1 0 0 1 263 1156)">Medium</text>
  <text style="stroke:none;fill:black;font-family:sans-serif;font-size:13;" transform="matrix(1 0 0 1 263 1586)">Large</text>
 </g>
 <g id="Guides">
  <g id="H-reference" style="fill:#27AAE1;stroke:none;" transform="matrix(1 0 0 1 339 696)">
   <path d="M0.993654 0L3.63775 0L29.3281-67.1323L30.0303-67.1323L30.0303-70.459L28.1226-70.459ZM11.6885-24.4799L46.9815-24.4799L46.2315-26.7285L12.4385-26.7285ZM55.1196 0L57.7637 0L30.6382-70.459L29.4326-70.459L29.4326-67.1323Z"/>
  </g>
  <line id="Baseline-S" style="fill:none;stroke:#27AAE1;opacity:1;stroke-width:0.5;" x1="263" x2="3036" y1="696" y2="696"/>
  <line id="Capline-S" style="fill:none;stroke:#27AAE1;opacity:1;stroke-width:0.5;" x1="263" x2="3036" y1="625.541" y2="625.541"/>
  <g id="H-reference" style="fill:#27AAE1;stroke:none;" transform="matrix(1 0 0 1 339 1126)">
   <path d="M0.993654 0L3.63775 0L29.3281-67.1323L30.0303-67.1323L30.0303-70.459L28.1226-70.459ZM11.6885-24.4799L46.9815-24.4799L46.2315-26.7285L12.4385-26.7285ZM55.1196 0L57.7637 0L30.6382-70.459L29.4326-70.459L29.4326-67.1323Z"/>
  </g>
  <line id="Baseline-M" style="fill:none;stroke:#27AAE1;opacity:1;stroke-width:0.5;" x1="263" x2="3036" y1="1126" y2="1126"/>
  <line id="Capline-M" style="fill:none;stroke:#27AAE1;opacity:1;stroke-width:0.5;" x1="263" x2="3036" y1="1055.54" y2="1055.54"/>
  <g id="H-reference" style="fill:#27AAE1;stroke:none;" transform="matrix(1 0 0 1 339 1556)">
   <path d="M0.993654 0L3.63775 0L29.3281-67.1323L30.0303-67.1323L30.0303-70.459L28.1226-70.459ZM11.6885-24.4799L46.9815-24.4799L46.2315-26.7285L12.4385-26.7285ZM55.1196 0L57.7637 0L30.6382-70.459L29.4326-70.459L29.4326-67.1323Z"/>
  </g>
  <line id="Baseline-L" style="fill:none;stroke:#27AAE1;opacity:1;stroke-width:0.5;" x1="263" x2="3036" y1="1556" y2="1556"/>
  <line id="Capline-L" style="fill:none;stroke:#27AAE1;opacity:1;stroke-width:0.5;" x1="263" x2="3036" y1="1485.54" y2="1485.54"/>
  <line id="left-margin-Ultralight-S" style="fill:none;stroke:#00AEEF;stroke-width:0.5;opacity:1.0;" x1="512.566" x2="512.566" y1="600.785" y2="720.121"/>
  <line id="right-margin-Ultralight-S" style="fill:none;stroke:#00AEEF;stroke-width:0.5;opacity:1.0;" x1="606.857" x2="606.857" y1="600.785" y2="720.121"/>
  <line id="left-margin-Regular-S" style="fill:none;stroke:#00AEEF;stroke-width:0.5;opacity:1.0;" x1="1399.43" x2="1399.43" y1="600.785" y2="720.121"/>
  <line id="right-margin-Regular-S" style="fill:none;stroke:#00AEEF;stroke-width:0.5;opacity:1.0;" x1="1500.26" x2="1500.26" y1="600.785" y2="720.121"/>
  <line id="left-margin-Black-S" style="fill:none;stroke:#00AEEF;stroke-width:0.5;opacity:1.0;" x1="2879.23" x2="2879.23" y1="600.785" y2="720.121"/>
  <line id="right-margin-Black-S" style="fill:none;stroke:#00AEEF;stroke-width:0.5;opacity:1.0;" x1="2987.57" x2="2987.57" y1="600.785" y2="720.121"/>
 </g>
 <g id="Symbols">
  <g id="Black-S" transform="matrix(1 0 0 1 2879.23 696)">
   <path class="monochrome-0 multicolor-0:tintColor hierarchical-0:primary SFSymbolsPreviewWireframe" d="M18.8334-38.5383L23.0306-14.6444C23.1818-13.7847 24.0438-13.1484 25.0585-13.1484L31.211-13.1484L31.211-7.75781C31.211-6.7869 32.129-6 33.2618-6L49.6684-6C50.8006-6 51.7192-6.7869 51.7192-7.75781L51.7192-9.63281L55.8209-9.63281L55.8209-7.75781C55.8209-6.7869 56.7389-6 57.8717-6L74.415-6C75.5472-6 76.4658-6.7869 76.4658-7.75781L76.4658-13.1484L82.6183-13.1484C83.6368-13.1484 84.5009-13.7893 84.6478-14.6531L88.7088-38.5511C88.845-39.3687 88.7531-40.2137 88.4402-41.002L80.9419-59.6499C80.3298-61.193 78.8884-62.4258 77.0789-62.9499L66.7233-65.9098C66.7196-65.9107 66.7159-65.9112 66.7121-65.9126C66.5022-65.9712 66.2726-66 66.075-66L41.4651-66C41.2509-66 41.0288-65.9689 40.8231-65.9107C40.8183-65.9094 40.813-65.9089 40.8082-65.9075L30.5893-62.9472C28.7916-62.4267 27.3523-61.1976 26.7381-59.6586L19.1036-41.0116C19.1015-41.0061 19.0994-41.0011 19.0972-40.9956C18.7869-40.2137 18.6951-39.3687 18.8313-38.5511C18.8318-38.547 18.8329-38.5424 18.8334-38.5383L18.8334-38.5383ZM31.211-16.6641L26.8236-16.6641L26.2057-20.1797L31.211-20.1797L31.211-16.6641ZM80.8447-16.6641L76.4658-16.6641L76.4658-20.1797L81.4417-20.1797L80.8447-16.6641ZM67.8582-61.8797L75.7737-59.6169C76.3745-59.443 76.8546-59.0319 77.0613-58.511L84.5596-39.8631C84.6632-39.6026 84.6937-39.3211 84.6494-39.0533L82.0394-23.6953L76.4658-23.6953L76.4658-46.6641C76.4658-47.635 75.5472-48.4219 74.415-48.4219C73.2822-48.4219 72.3642-47.635 72.3642-46.6641L72.3642-19.119L67.4187-23.3135C66.6139-23.9965 65.315-23.9906 64.5187-23.3007C63.7219-22.6109 63.7288-21.4976 64.5337-20.8151L72.3642-14.1729L72.3642-9.51562L59.9225-9.51562L59.9225-53.1217C64.0498-54.8008 66.9877-58.0743 67.8582-61.8797ZM63.8159-62.4844C63.1045-59.5052 60.6189-56.9921 57.1881-55.953C56.3688-55.7044 55.8209-55.0407 55.8209-54.2954L55.8209-13.1484L51.7192-13.1484L51.7192-54.2954C51.7192-55.0402 51.1713-55.7044 50.352-55.953C46.9206-56.9921 44.4356-59.5052 43.7242-62.4844L63.8159-62.4844ZM22.9778-39.8567L30.6112-58.5018C30.6139-58.5069 30.6155-58.5124 30.6182-58.5179C30.8222-59.0319 31.3023-59.443 31.9026-59.6169L39.684-61.871C40.5572-58.0692 43.4935-54.7994 47.6176-53.1217L47.6176-9.51562L35.3126-9.51562L35.3126-14.1935L42.8382-20.8402C43.627-21.537 43.6078-22.6498 42.7949-23.3259C41.9821-24.0016 40.6837-23.9855 39.8949-23.2884L35.3126-19.2417L35.3126-46.6641C35.3126-47.635 34.394-48.4219 33.2618-48.4219C32.129-48.4219 31.211-47.635 31.211-46.6641L31.211-23.6953L25.5883-23.6953L22.8907-39.0537C22.8469-39.3224 22.8768-39.5999 22.9778-39.8567Z"/>
  </g>
  <g id="Regular-S" transform="matrix(1 0 0 1 1399.43 696)">
   <path class="monochrome-0 multicolor-0:tintColor hierarchical-0:primary SFSymbolsPreviewWireframe" d="M14.6334-38.5383L18.8306-14.6444C18.9818-13.7847 19.8438-13.1484 20.8585-13.1484L27.011-13.1484L27.011-7.75781C27.011-6.7869 27.929-6 29.0618-6L45.4684-6C46.6006-6 47.5192-6.7869 47.5192-7.75781L47.5192-9.63281L51.6209-9.63281L51.6209-7.75781C51.6209-6.7869 52.5389-6 53.6717-6L70.215-6C71.3472-6 72.2658-6.7869 72.2658-7.75781L72.2658-13.1484L78.4183-13.1484C79.4368-13.1484 80.3009-13.7893 80.4478-14.6531L84.5088-38.5511C84.645-39.3687 84.5531-40.2137 84.2402-41.002L76.7419-59.6499C76.1298-61.193 74.6884-62.4258 72.8789-62.9499L62.5233-65.9098C62.5196-65.9107 62.5159-65.9112 62.5121-65.9126C62.3022-65.9712 62.0726-66 61.875-66L37.2651-66C37.0509-66 36.8288-65.9689 36.6231-65.9107C36.6183-65.9094 36.613-65.9089 36.6082-65.9075L26.3893-62.9472C24.5916-62.4267 23.1523-61.1976 22.5381-59.6586L14.9036-41.0116C14.9015-41.0061 14.8994-41.0011 14.8972-40.9956C14.5869-40.2137 14.4951-39.3687 14.6313-38.5511C14.6318-38.547 14.6329-38.5424 14.6334-38.5383L14.6334-38.5383ZM27.011-16.6641L22.6236-16.6641L22.0057-20.1797L27.011-20.1797L27.011-16.6641ZM76.6447-16.6641L72.2658-16.6641L72.2658-20.1797L77.2417-20.1797L76.6447-16.6641ZM63.6582-61.8797L71.5737-59.6169C72.1745-59.443 72.6546-59.0319 72.8613-58.511L80.3596-39.8631C80.4632-39.6026 80.4937-39.3211 80.4494-39.0533L77.8394-23.6953L72.2658-23.6953L72.2658-46.6641C72.2658-47.635 71.3472-48.4219 70.215-48.4219C69.0822-48.4219 68.1642-47.635 68.1642-46.6641L68.1642-19.119L63.2187-23.3135C62.4139-23.9965 61.115-23.9906 60.3187-23.3007C59.5219-22.6109 59.5288-21.4976 60.3337-20.8151L68.1642-14.1729L68.1642-9.51562L55.7225-9.51562L55.7225-53.1217C59.8498-54.8008 62.7877-58.0743 63.6582-61.8797ZM59.6159-62.4844C58.9045-59.5052 56.4189-56.9921 52.9881-55.953C52.1688-55.7044 51.6209-55.0407 51.6209-54.2954L51.6209-13.1484L47.5192-13.1484L47.5192-54.2954C47.5192-55.0402 46.9713-55.7044 46.152-55.953C42.7206-56.9921 40.2356-59.5052 39.5242-62.4844L59.6159-62.4844ZM18.7778-39.8567L26.4112-58.5018C26.4139-58.5069 26.4155-58.5124 26.4182-58.5179C26.6222-59.0319 27.1023-59.443 27.7026-59.6169L35.484-61.871C36.3572-58.0692 39.2935-54.7994 43.4176-53.1217L43.4176-9.51562L31.1126-9.51562L31.1126-14.1935L38.6382-20.8402C39.427-21.537 39.4078-22.6498 38.5949-23.3259C37.7821-24.0016 36.4837-23.9855 35.6949-23.2884L31.1126-19.2417L31.1126-46.6641C31.1126-47.635 30.194-48.4219 29.0618-48.4219C27.929-48.4219 27.011-47.635 27.011-46.6641L27.011-23.6953L21.3883-23.6953L18.6907-39.0537C18.6469-39.3224 18.6768-39.5999 18.7778-39.8567Z"/>
  </g>
  <g id="Ultralight-S" transform="matrix(1 0 0 1 512.566 696)">
   <path class="monochrome-0 multicolor-0:tintColor hierarchical-0:primary SFSymbolsPreviewWireframe" d="M10.4974-38.5383L14.6946-14.6444C14.8458-13.7847 15.7078-13.1484 16.7225-13.1484L22.875-13.1484L22.875-7.75781C22.875-6.7869 23.793-6 24.9258-6L41.3324-6C42.4646-6 43.3832-6.7869 43.3832-7.75781L43.3832-9.63281L47.4849-9.63281L47.4849-7.75781C47.4849-6.7869 48.4029-6 49.5357-6L66.079-6C67.2112-6 68.1298-6.7869 68.1298-7.75781L68.1298-13.1484L74.2823-13.1484C75.3008-13.1484 76.1649-13.7893 76.3118-14.6531L80.3728-38.5511C80.509-39.3687 80.4171-40.2137 80.1042-41.002L72.6059-59.6499C71.9938-61.193 70.5524-62.4258 68.7429-62.9499L58.3873-65.9098C58.3836-65.9107 58.3799-65.9112 58.3761-65.9126C58.1662-65.9712 57.9366-66 57.739-66L33.1291-66C32.9149-66 32.6928-65.9689 32.4871-65.9107C32.4823-65.9094 32.477-65.9089 32.4722-65.9075L22.2533-62.9472C20.4556-62.4267 19.0163-61.1976 18.4021-59.6586L10.7676-41.0116C10.7655-41.0061 10.7634-41.0011 10.7612-40.9956C10.4509-40.2137 10.3591-39.3687 10.4953-38.5511C10.4958-38.547 10.4969-38.5424 10.4974-38.5383L10.4974-38.5383ZM22.875-16.6641L18.4876-16.6641L17.8697-20.1797L22.875-20.1797L22.875-16.6641ZM72.5087-16.6641L68.1298-16.6641L68.1298-20.1797L73.1057-20.1797L72.5087-16.6641ZM59.5222-61.8797L67.4377-59.6169C68.0385-59.443 68.5186-59.0319 68.7253-58.511L76.2236-39.8631C76.3272-39.6026 76.3577-39.3211 76.3134-39.0533L73.7034-23.6953L68.1298-23.6953L68.1298-46.6641C68.1298-47.635 67.2112-48.4219 66.079-48.4219C64.9462-48.4219 64.0282-47.635 64.0282-46.6641L64.0282-19.119L59.0827-23.3135C58.2779-23.9965 56.979-23.9906 56.1827-23.3007C55.3859-22.6109 55.3928-21.4976 56.1977-20.8151L64.0282-14.1729L64.0282-9.51562L51.5865-9.51562L51.5865-53.1217C55.7138-54.8008 58.6517-58.0743 59.5222-61.8797ZM55.4799-62.4844C54.7685-59.5052 52.2829-56.9921 48.8521-55.953C48.0328-55.7044 47.4849-55.0407 47.4849-54.2954L47.4849-13.1484L43.3832-13.1484L43.3832-54.2954C43.3832-55.0402 42.8353-55.7044 42.016-55.953C38.5846-56.9921 36.0996-59.5052 35.3882-62.4844L55.4799-62.4844ZM14.6418-39.8567L22.2752-58.5018C22.2779-58.5069 22.2795-58.5124 22.2822-58.5179C22.4862-59.0319 22.9663-59.443 23.5666-59.6169L31.348-61.871C32.2212-58.0692 35.1575-54.7994 39.2816-53.1217L39.2816-9.51562L26.9766-9.51562L26.9766-14.1935L34.5022-20.8402C35.291-21.537 35.2718-22.6498 34.4589-23.3259C33.6461-24.0016 32.3477-23.9855 31.5589-23.2884L26.9766-19.2417L26.9766-46.6641C26.9766-47.635 26.058-48.4219 24.9258-48.4219C23.793-48.4219 22.875-47.635 22.875-46.6641L22.875-23.6953L17.2523-23.6953L14.5547-39.0537C14.5109-39.3224 14.5408-39.5999 14.6418-39.8567Z"/>
  </g>
 </g>
</svg>
